<?xml version="1.0" encoding="utf-8"?>
<!-- Generator: Adobe Illustrator 18.1.1, SVG Export Plug-In . SVG Version: 6.00 Build 0)  -->
<svg version="1.1" id="Layer_1" xmlns="http://www.w3.org/2000/svg" xmlns:xlink="http://www.w3.org/1999/xlink" x="0px" y="0px"
	 viewBox="0 0 88.8 88.8" enable-background="new 0 0 88.8 88.8" xml:space="preserve">
<g>
	<g>
		
			<image overflow="visible" opacity="5.000000e-02" width="157" height="157" xlink:href="2A9992E9C8B37B0E.png"  transform="matrix(0.24 0 0 0.24 27.5824 25.6336)">
		</image>
		<g>
			<polygon fill="#FFFFFF" points="34.1,56.7 34.1,32.1 58.7,44.4 58.7,44.4 			"/>
		</g>
	</g>
	<g>
		
			<image overflow="visible" opacity="5.000000e-02" width="370" height="370" xlink:href="2A9992E9C8B37B12.png"  transform="matrix(0.24 0 0 0.24 0 0)">
		</image>
		<g>
			<path fill="#FFFFFF" d="M82.2,44.3c0,20.9-16.9,37.9-37.9,37.9S6.5,65.2,6.5,44.3S23.4,6.5,44.3,6.5S82.2,23.4,82.2,44.3z
				 M44.3,8.6c-19.7,0-35.7,16-35.7,35.7s16,35.7,35.7,35.7s35.7-16,35.7-35.7S64.1,8.6,44.3,8.6z"/>
		</g>
	</g>
</g>
</svg>
