<?xml version="1.0" encoding="utf-8"?>
<!-- Generator: Adobe Illustrator 18.1.1, SVG Export Plug-In . SVG Version: 6.00 Build 0)  -->
<svg version="1.1" id="Layer_1" xmlns="http://www.w3.org/2000/svg" xmlns:xlink="http://www.w3.org/1999/xlink" x="0px" y="0px"
	 viewBox="0 0 32.6 32.6" enable-background="new 0 0 32.6 32.6" xml:space="preserve">
<g>
	
		<image overflow="visible" opacity="0.12" width="136" height="136" xlink:href="7507C671879A73C7.png"  transform="matrix(0.24 0 0 0.24 0 0)">
	</image>
	<g>
		<circle fill="#ED4137" cx="16.2" cy="16.2" r="11.9"/>
	</g>
</g>
<g>
	
		<rect x="19.3" y="18.1" transform="matrix(0.7071 -0.7071 0.7071 0.7071 -8.386 20.2455)" fill="#FFFFFF" width="1.8" height="4.2"/>
	<path fill="#FFFFFF" d="M19.5,12.2c2,2,2,5.2,0,7.2s-5.2,2-7.2,0s-2-5.2,0-7.2S17.5,10.2,19.5,12.2z M13.3,13.3
		c-1.4,1.4-1.4,3.6,0,5c1.4,1.4,3.6,1.4,5,0c1.4-1.4,1.4-3.6,0-5S14.7,12,13.3,13.3z"/>
	<g>
		<polygon fill="#FFFFFF" points="15.6,15.6 13.7,15.6 13.7,15.6 13.7,16.1 13.7,16.1 15.6,16.1 15.6,18 16.1,18 16.1,16.1 
			16.1,16.1 18,16.1 18,15.6 16.1,15.6 16.1,13.7 15.6,13.7 		"/>
	</g>
</g>
</svg>
